# xmcd
#
# Track frame offsets: 
#        150
#        22258
#        39304
#        58285
#        75005
#        90900
#        107558
#        128040
#        144384
#        169954
#        188073
#
# Disc length: 2827 seconds
#
# Revision: 1
# Processed by: cddbd v1.5.2PL0 Copyright (c) Steve Scherf et al.
# Submitted via: ExactAudioCopyFreeDBPlugin 1.0
#
DISCID=840b090b
DTITLE=Johnny Hallyday - vol 28  Rock n roll attitude
DYEAR=1900
DGENRE=
TTITLE0=Le chanteur abandonne
TTITLE1=Qui ose aimer
TTITLE2=Quelque chose de Tennessee
TTITLE3=Equipe de nuit
TTITLE4=La blouse de l infirmiere
TTITLE5=Rock n roll attitude
TTITLE6=Seul mais pas solitaire
TTITLE7=Parker connais pas
TTITLE8=Aimer vivre
TTITLE9=Pendue a mon cou
TTITLE10=Rock n roll attitude
EXTD=
EXTT0=
EXTT1=
EXTT2=
EXTT3=
EXTT4=
EXTT5=
EXTT6=
EXTT7=
EXTT8=
EXTT9=
EXTT10=
PLAYORDER=
